<svg width="100" height="104" viewBox="0 0 100 104" fill="none" xmlns="http://www.w3.org/2000/svg">
<path d="M62.254 33.1438C60.981 31.641 59.342 30.6914 57.603 29.9406C54.261 28.497 51.141 26.7613 48.966 23.5986C48.563 23.0121 47.928 23.0173 47.42 23.5154C46.947 23.9793 46.763 24.5887 46.701 25.2408C46.481 27.5236 47.085 29.5734 48.309 31.4579C48.526 31.7907 48.946 32.0861 48.741 32.6186C48.362 32.5645 48.302 32.2234 48.132 32.0112C47.816 31.6181 47.475 31.3206 46.946 31.4714C46.427 31.6191 46.235 32.0414 46.149 32.5447C46.02 33.305 46.334 33.9612 46.611 34.6206C47.067 35.7011 47.78 36.608 48.56 37.4837C48.305 37.7281 48.119 37.9122 47.928 38.0879C43.637 42.0358 39.336 45.9711 35.057 49.9335C33.196 51.6568 31.23 53.2574 29.467 55.095C29.216 55.3332 28.912 55.3186 28.6 55.3176C26.592 55.3114 24.583 55.2874 22.576 55.3249C21.099 55.3519 20.175 56.6852 20.612 58.0663C20.873 58.8931 21.463 59.3726 22.437 59.3892C24.135 59.4173 25.834 59.3934 27.533 59.3611C28.121 59.3497 28.351 59.5587 28.349 60.1973C28.336 64.4166 29.662 68.1959 32.071 71.5343C37.573 79.1575 44.897 82.1174 53.891 80.3566C58.364 79.481 61.982 76.9007 65.123 73.5623C65.473 73.19 65.812 73.0756 66.284 73.1682C67.296 73.3668 68.318 73.501 69.349 73.529C73.388 73.6382 76.513 71.9784 78.415 68.2167C81.653 61.8103 77.159 55.0202 70.918 55.2802C68.707 55.3727 66.49 55.3082 64.276 55.3093C64.085 55.3093 63.872 55.3987 63.675 55.1949C63.711 55.0274 63.743 54.8454 63.788 54.6676C64.543 51.7379 64.624 48.7989 63.809 45.8723C63.653 45.3118 63.783 44.9769 64.171 44.6254C65.374 43.5344 66.573 42.4393 67.746 41.314C68.713 40.3874 68.708 39.8996 67.804 38.8908C67.646 38.715 67.465 38.5622 67.307 38.3864C65.786 36.6954 63.723 35.567 62.585 33.4755C62.513 33.3445 62.367 33.254 62.254 33.1438Z" fill="#FCF5F0"/>
<path d="M62.254 33.1438C62.366 33.254 62.513 33.3434 62.585 33.4776C63.723 35.569 65.786 36.6974 67.307 38.3885C67.465 38.5642 67.647 38.7171 67.804 38.8929C68.708 39.9017 68.713 40.3894 67.746 41.3161C66.573 42.4403 65.374 43.5365 64.171 44.6274C63.783 44.979 63.653 45.3138 63.809 45.8744C64.624 48.801 64.543 51.739 63.788 54.6697C63.742 54.8475 63.71 55.0285 63.675 55.197C63.872 55.4008 64.085 55.3114 64.276 55.3114C66.49 55.3103 68.707 55.3738 70.918 55.2822C77.159 55.0222 81.653 61.8114 78.415 68.2188C76.513 71.9815 73.388 73.6403 69.349 73.5311C68.318 73.5031 67.296 73.3678 66.284 73.1702C65.812 73.0777 65.473 73.1921 65.123 73.5644C61.982 76.9028 58.364 79.483 53.891 80.3587C44.897 82.1194 37.573 79.1596 32.071 71.5364C29.662 68.198 28.336 64.4187 28.349 60.1994C28.351 59.5608 28.121 59.3518 27.533 59.3632C25.835 59.3954 24.135 59.4194 22.437 59.3913C21.463 59.3757 20.874 58.8952 20.612 58.0684C20.175 56.6862 21.099 55.354 22.576 55.327C24.584 55.2895 26.592 55.3134 28.6 55.3197C28.912 55.3207 29.216 55.3353 29.466 55.0982C29.781 55.2365 30.112 55.2927 30.448 55.2448C32.167 54.9973 33.9 54.9765 35.613 54.5418C37.823 53.9812 39.956 53.2574 41.995 52.2278C43.503 51.4654 44.874 50.4795 46.178 49.3823C46.92 48.7573 47.638 48.8332 48.134 49.5144C48.602 50.1582 48.522 51.091 47.89 51.5726C46.835 52.3775 45.741 53.1274 44.673 53.9136C44.038 54.3816 43.254 54.6052 42.478 55.301C42.973 55.301 43.245 55.301 43.517 55.301C48.482 55.2989 53.448 55.275 58.412 55.3186C59.242 55.3259 59.612 54.9921 59.852 54.2474C61.103 50.3662 60.908 46.6305 58.807 43.1028C58.472 42.5391 58.447 42.1606 58.858 41.6229C60.351 39.6677 60.837 37.5055 59.905 35.1135C59.805 34.8566 59.828 34.6403 60.071 34.4906C60.798 34.0392 61.527 33.592 62.254 33.1438ZM49.554 59.3882C49.554 59.385 49.554 59.3819 49.554 59.3788C44.301 59.3788 39.047 59.3788 33.794 59.3799C33.537 59.3799 33.279 59.3871 33.022 59.3975C32.43 59.4214 32.146 59.6887 32.206 60.3574C32.323 61.6689 32.54 62.9574 32.922 64.2106C36.274 75.2149 49.535 80.8787 59.326 73.3294C63.527 70.0898 65.994 65.8882 66.514 60.4729C66.616 59.409 66.573 59.3892 65.545 59.3892C60.215 59.3871 54.885 59.3882 49.554 59.3882ZM68.386 68.9634C70.692 69.655 73.133 68.8865 74.519 67.0499C75.723 65.4534 75.878 63.3381 74.914 61.647C74.008 60.0569 72.307 59.2467 70.413 59.5712C70.621 62.8711 69.472 65.8798 68.386 68.9634ZM66.308 40.1523C65.109 39.285 64.023 38.4488 62.847 37.7468C61.924 39.4035 61.831 41.2693 62.94 42.4611C64.026 41.7165 65.115 40.9698 66.308 40.1523Z" fill="#4D4D4D"/>
<path d="M62.254 33.1438C61.526 33.592 60.798 34.0382 60.072 34.4885C59.829 34.6393 59.806 34.8556 59.906 35.1115C60.838 37.5035 60.352 39.6656 58.859 41.6208C58.448 42.1585 58.472 42.5371 58.808 43.1007C60.909 46.6284 61.105 50.3651 59.853 54.2454C59.613 54.99 59.243 55.3239 58.413 55.3166C53.448 55.2729 48.483 55.2968 43.518 55.2989C43.246 55.2989 42.974 55.2989 42.479 55.2989C43.255 54.6021 44.039 54.3795 44.674 53.9115C45.742 53.1243 46.836 52.3744 47.891 51.5705C48.523 51.089 48.603 50.1561 48.135 49.5123C47.639 48.8311 46.921 48.7552 46.179 49.3803C44.876 50.4775 43.505 51.4634 41.996 52.2257C39.957 53.2553 37.825 53.9791 35.614 54.5397C33.901 54.9734 32.167 54.9952 30.449 55.2427C30.114 55.2906 29.782 55.2355 29.467 55.0961C31.231 53.2584 33.197 51.6579 35.058 49.9346C39.337 45.9722 43.638 42.0368 47.929 38.089C48.121 37.9122 48.306 37.7291 48.561 37.4847C47.781 36.6101 47.068 35.7022 46.612 34.6216C46.334 33.9633 46.02 33.3071 46.15 32.5458C46.236 32.0424 46.428 31.6202 46.947 31.4725C47.476 31.3217 47.817 31.6191 48.133 32.0123C48.303 32.2244 48.363 32.5645 48.742 32.6196C48.947 32.0871 48.526 31.7918 48.31 31.459C47.085 29.5745 46.482 27.5247 46.702 25.2419C46.765 24.5898 46.948 23.9803 47.421 23.5165C47.928 23.0194 48.564 23.0142 48.967 23.5997C51.141 26.7623 54.262 28.4981 57.604 29.9416C59.342 30.6915 60.981 31.641 62.254 33.1438ZM56.106 37.1759C54.968 37.4452 54.691 38.1711 55.326 39.1851C55.595 39.6136 55.982 39.8476 56.44 39.9672C57.382 40.2147 57.69 39.9558 57.69 38.9376C58.575 38.6329 59.111 37.9257 58.996 37.2133C58.884 36.5207 58.088 35.7729 57.434 35.7469C56.832 35.7219 56.296 36.3002 56.106 37.1759Z" fill="#C4C4C4"/>
<path d="M49.554 59.3882C54.885 59.3882 60.215 59.3871 65.546 59.3892C66.573 59.3892 66.617 59.409 66.515 60.4729C65.995 65.8892 63.528 70.0908 59.327 73.3294C49.536 80.8787 36.275 75.2149 32.923 64.2107C32.541 62.9575 32.324 61.6689 32.207 60.3575C32.147 59.6887 32.431 59.4215 33.023 59.3975C33.28 59.3871 33.538 59.3799 33.795 59.3799C39.048 59.3788 44.302 59.3788 49.555 59.3788C49.554 59.3819 49.554 59.3851 49.554 59.3882ZM53.387 68.328C53.449 66.1211 51.659 64.2377 49.441 64.1763C47.233 64.115 45.374 65.9495 45.317 68.2479C45.261 70.4746 47.057 72.4402 49.197 72.4953C51.502 72.5546 53.319 70.7481 53.387 68.328Z" fill="#FCF5F0"/>
<path d="M68.386 68.9635C69.472 65.8809 70.621 62.8711 70.412 59.5712C72.307 59.2467 74.007 60.0569 74.913 61.6471C75.877 63.3381 75.722 65.4535 74.518 67.0499C73.133 68.8865 70.692 69.6551 68.386 68.9635Z" fill="#FCF5F0"/>
<path d="M66.308 40.1523C65.116 40.9698 64.026 41.7165 62.94 42.4611C61.831 41.2693 61.923 39.4025 62.847 37.7468C64.023 38.4488 65.109 39.285 66.308 40.1523Z" fill="#FCF5F0"/>
<path d="M56.106 37.1758C56.296 36.3002 56.832 35.7219 57.433 35.7458C58.086 35.7718 58.883 36.5196 58.995 37.2122C59.11 37.9246 58.575 38.6318 57.689 38.9366C56.592 38.7067 56.28 38.3594 56.106 37.1758Z" fill="#3F3F3F"/>
<path d="M56.106 37.1758C56.28 38.3594 56.592 38.7067 57.689 38.9376C57.689 39.9568 57.381 40.2158 56.44 39.9672C55.983 39.8466 55.595 39.6136 55.326 39.1851C54.691 38.1711 54.968 37.4452 56.106 37.1758Z" fill="#FCF5F0"/>
<path d="M53.387 68.328C53.319 70.7481 51.502 72.5546 49.196 72.4953C47.056 72.4402 45.26 70.4746 45.316 68.2479C45.374 65.9495 47.232 64.115 49.44 64.1763C51.658 64.2377 53.448 66.1211 53.387 68.328ZM49.328 67.0571C48.679 67.0561 48.129 67.6083 48.132 68.2583C48.135 68.9749 48.689 69.5791 49.329 69.5646C49.971 69.549 50.511 68.9998 50.53 68.3405C50.551 67.6374 50.008 67.0582 49.328 67.0571Z" fill="#3F3F3F"/>
<path d="M49.328 67.0571C50.008 67.0582 50.551 67.6374 50.53 68.3405C50.511 68.9998 49.971 69.55 49.329 69.5646C48.69 69.5802 48.135 68.9749 48.132 68.2583C48.129 67.6094 48.679 67.0571 49.328 67.0571Z" fill="#FCF5F0"/>
</svg>