<svg width="525" height="546" viewBox="0 0 525 546" fill="none" xmlns="http://www.w3.org/2000/svg">
<path d="M365.87 109.6C355.08 96.5783 341.188 88.3505 326.449 81.844C298.123 69.3355 271.679 54.2948 253.244 26.8898C249.828 21.8071 244.446 21.8522 240.14 26.1688C236.131 30.1881 234.572 35.4691 234.046 41.1195C232.182 60.9005 237.301 78.6628 247.675 94.9922C249.515 97.876 253.074 100.435 251.337 105.049C248.125 104.581 247.616 101.625 246.175 99.7865C243.497 96.38 240.607 93.8027 236.123 95.1094C231.724 96.3891 230.097 100.048 229.368 104.41C228.274 110.997 230.936 116.684 233.284 122.397C237.149 131.761 243.192 139.619 249.803 147.207C247.642 149.325 246.065 150.92 244.446 152.443C208.077 186.652 171.623 220.752 135.355 255.087C119.581 270.02 102.918 283.889 87.9753 299.813C85.8479 301.877 83.2713 301.751 80.6268 301.742C63.6075 301.688 46.5797 301.48 29.5689 301.805C17.0502 302.039 9.21864 313.592 12.9225 325.56C15.1347 332.724 20.1354 336.879 28.3908 337.023C42.7826 337.266 57.1829 337.059 71.5832 336.78C76.567 336.681 78.5164 338.492 78.4994 344.025C78.3892 380.586 89.6281 413.335 110.046 442.263C156.68 508.32 218.756 533.968 294.987 518.711C332.899 511.123 363.564 488.764 390.187 459.836C393.153 456.61 396.027 455.619 400.027 456.421C408.605 458.142 417.267 459.305 426.005 459.548C460.239 460.494 486.726 446.111 502.846 413.516C530.291 358.003 492.201 299.164 439.304 301.417C420.564 302.219 401.773 301.661 383.008 301.67C381.389 301.67 379.584 302.445 377.914 300.678C378.219 299.227 378.49 297.65 378.872 296.109C385.271 270.723 385.957 245.256 379.05 219.896C377.727 215.039 378.829 212.137 382.118 209.091C392.314 199.638 402.477 190.148 412.419 180.397C420.615 172.368 420.572 168.141 412.91 159.4C411.571 157.877 410.037 156.552 408.698 155.029C395.806 140.376 378.321 130.598 368.675 112.475C368.065 111.34 366.828 110.556 365.87 109.6Z" fill="#FCF5F0"/>
<path d="M365.87 109.6C366.819 110.556 368.065 111.331 368.675 112.493C378.321 130.616 395.806 140.394 408.698 155.047C410.037 156.57 411.579 157.895 412.91 159.418C420.572 168.159 420.615 172.386 412.419 180.415C402.477 190.157 392.314 199.656 382.118 209.109C378.829 212.155 377.727 215.057 379.05 219.914C385.957 245.274 385.271 270.732 378.872 296.127C378.482 297.668 378.21 299.237 377.914 300.696C379.584 302.463 381.389 301.688 383.008 301.688C401.773 301.679 420.564 302.228 439.304 301.435C492.201 299.182 530.291 358.012 502.846 413.534C486.726 446.138 460.239 460.512 426.005 459.566C417.267 459.323 408.605 458.151 400.027 456.439C396.027 455.637 393.153 456.628 390.187 459.854C363.564 488.782 332.899 511.141 294.987 518.729C218.756 533.986 156.68 508.338 110.046 442.281C89.6281 413.353 78.3892 380.604 78.4994 344.043C78.5164 338.51 76.567 336.699 71.5832 336.798C57.1914 337.077 42.7826 337.284 28.3908 337.041C20.1354 336.906 15.1432 332.742 12.9225 325.578C9.21864 313.601 17.0502 302.057 29.5689 301.823C46.5882 301.498 63.6075 301.706 80.6268 301.76C83.2713 301.769 85.8479 301.895 87.9669 299.84C90.6367 301.039 93.4422 301.526 96.29 301.111C110.86 298.966 125.548 298.786 140.067 295.019C158.799 290.162 176.877 283.889 194.16 274.968C206.941 268.362 218.561 259.819 229.614 250.311C235.903 244.895 241.988 245.553 246.192 251.456C250.159 257.034 249.481 265.118 244.124 269.29C235.182 276.265 225.91 282.763 216.858 289.576C211.475 293.631 204.83 295.569 198.253 301.598C202.449 301.598 204.754 301.598 207.06 301.598C249.142 301.58 291.232 301.372 333.306 301.751C340.341 301.814 343.477 298.921 345.511 292.469C356.114 258.836 354.461 226.466 336.654 195.898C333.814 191.013 333.603 187.733 337.086 183.074C349.74 166.132 353.86 147.396 345.96 126.669C345.113 124.443 345.308 122.568 347.367 121.271C353.529 117.36 359.708 113.485 365.87 109.6ZM258.228 337.014C258.228 336.987 258.228 336.96 258.228 336.933C213.705 336.933 169.173 336.933 124.65 336.942C122.472 336.942 120.285 337.005 118.107 337.095C113.089 337.303 110.682 339.619 111.19 345.413C112.182 356.777 114.021 367.943 117.259 378.802C145.67 474.156 258.067 523.235 341.053 457.818C376.659 429.746 397.569 393.338 401.976 346.413C402.841 337.194 402.477 337.023 393.763 337.023C348.588 337.005 303.412 337.014 258.228 337.014ZM417.843 419.986C437.388 425.979 458.077 419.319 469.825 403.404C480.03 389.571 481.343 371.241 473.173 356.588C465.494 342.809 451.077 335.789 435.023 338.6C436.786 367.195 427.048 393.266 417.843 419.986ZM400.23 170.331C390.068 162.815 380.863 155.57 370.896 149.487C363.073 163.843 362.285 180.01 371.684 190.337C380.889 183.885 390.119 177.414 400.23 170.331Z" fill="#4D4D4D"/>
<path d="M365.87 109.6C359.699 113.485 353.529 117.351 347.376 121.253C345.316 122.559 345.121 124.434 345.969 126.651C353.868 147.378 349.749 166.114 337.095 183.056C333.611 187.715 333.814 190.995 336.662 195.88C354.47 226.448 356.131 258.827 345.519 292.451C343.485 298.903 340.349 301.796 333.314 301.733C291.232 301.354 249.15 301.562 207.068 301.58C204.763 301.58 202.457 301.58 198.262 301.58C204.839 295.542 211.484 293.613 216.866 289.558C225.918 282.736 235.191 276.238 244.132 269.272C249.489 265.1 250.167 257.016 246.201 251.438C241.997 245.535 235.911 244.877 229.622 250.293C218.578 259.801 206.958 268.344 194.168 274.95C176.886 283.871 158.816 290.144 140.076 295.001C125.557 298.759 110.86 298.948 96.2984 301.093C93.4591 301.507 90.6451 301.03 87.9753 299.822C102.927 283.898 119.59 270.029 135.363 255.097C171.631 220.761 208.085 186.661 244.455 152.452C246.082 150.92 247.65 149.334 249.811 147.216C243.2 139.637 237.157 131.77 233.292 122.406C230.936 116.702 228.274 111.015 229.376 104.419C230.105 100.057 231.732 96.3981 236.131 95.1184C240.615 93.8117 243.505 96.3891 246.184 99.7956C247.624 101.634 248.133 104.581 251.345 105.058C253.083 100.444 249.515 97.885 247.684 95.0013C237.301 78.6718 232.19 60.9095 234.055 41.1285C234.589 35.4781 236.14 30.1971 240.149 26.1779C244.446 21.8702 249.837 21.8252 253.252 26.8988C271.679 54.3038 298.131 69.3446 326.457 81.853C341.188 88.3505 355.08 96.5783 365.87 109.6ZM313.761 144.539C304.115 146.873 301.768 153.164 307.15 161.95C309.43 165.663 312.71 167.691 316.592 168.727C324.576 170.872 327.186 168.628 327.186 159.805C334.687 157.165 339.23 151.037 338.256 144.864C337.306 138.862 330.56 132.382 325.017 132.157C319.914 131.941 315.371 136.951 313.761 144.539Z" fill="#C4C4C4"/>
<path d="M258.228 337.014C303.412 337.014 348.588 337.005 393.772 337.023C402.477 337.023 402.849 337.194 401.985 346.413C397.578 393.347 376.668 429.755 341.061 457.818C258.075 523.235 145.678 474.156 117.268 378.802C114.03 367.943 112.191 356.777 111.199 345.413C110.69 339.618 113.097 337.302 118.115 337.095C120.293 337.005 122.48 336.942 124.658 336.942C169.181 336.933 213.713 336.933 258.236 336.933C258.228 336.96 258.228 336.987 258.228 337.014ZM290.715 414.48C291.241 395.357 276.069 379.036 257.27 378.505C238.555 377.973 222.799 393.87 222.316 413.786C221.841 433.08 237.064 450.113 255.202 450.59C274.738 451.104 290.139 435.45 290.715 414.48Z" fill="#FCF5F0"/>
<path d="M417.843 419.986C427.048 393.275 436.786 367.195 435.015 338.6C451.076 335.788 465.485 342.809 473.164 356.588C481.335 371.241 480.021 389.571 469.816 403.404C458.077 419.319 437.388 425.979 417.843 419.986Z" fill="#FCF5F0"/>
<path d="M400.23 170.331C390.127 177.415 380.889 183.885 371.684 190.337C362.284 180.01 363.064 163.834 370.896 149.487C380.863 155.57 390.068 162.815 400.23 170.331Z" fill="#FCF5F0"/>
<path d="M313.761 144.539C315.371 136.951 319.914 131.941 325.008 132.148C330.543 132.373 337.298 138.853 338.247 144.855C339.222 151.028 334.687 157.156 327.178 159.796C317.88 157.805 315.236 154.795 313.761 144.539Z" fill="#3F3F3F"/>
<path d="M313.761 144.539C315.236 154.795 317.88 157.805 327.178 159.805C327.178 168.637 324.567 170.881 316.592 168.727C312.718 167.682 309.43 165.663 307.15 161.95C301.768 153.164 304.115 146.873 313.761 144.539Z" fill="#FCF5F0"/>
<path d="M290.715 414.48C290.139 435.45 274.738 451.104 255.193 450.59C237.055 450.113 221.833 433.08 222.308 413.786C222.799 393.87 238.547 377.973 257.261 378.505C276.061 379.036 291.232 395.357 290.715 414.48ZM256.312 403.467C250.811 403.458 246.15 408.244 246.175 413.876C246.201 420.085 250.896 425.321 256.321 425.195C261.762 425.06 266.339 420.302 266.5 414.588C266.678 408.496 262.076 403.476 256.312 403.467Z" fill="#3F3F3F"/>
<path d="M256.312 403.467C262.076 403.476 266.678 408.496 266.5 414.588C266.339 420.301 261.762 425.069 256.321 425.195C250.905 425.33 246.201 420.085 246.175 413.876C246.15 408.253 250.811 403.467 256.312 403.467Z" fill="#FCF5F0"/>
</svg>